{"title":"Mud 2012 WEBRip 480p x264 AAC - VYTO [P2PDL]","uid":8735585,"size":437558224,"categoryP":"video","categoryS":"movies","magnet":"?xt=urn:btih:b2152a5f182cd409bbc1469592c55a8215f0957e&amp;dn=Mud+2012+WEBRip+480p+x264+AAC+-+VYTO+%5BP2PDL%5D&amp;tr=udp%3A%2F%2Ftracker.openbittorrent.com%3A80&amp;tr=udp%3A%2F%2Fopen.demonii.com%3A1337&amp;tr=udp%3A%2F%2Ftracker.coppersurfer.tk%3A6969&amp;tr=udp%3A%2F%2Fexodus.desync.com%3A6969","seeders":1,"leechers":0,"uploader":"ValidusVyto","files":-1,"time":1374680187,"description":"_______ Visit us at our Semi Public Bittorrent Community ________\n  &lt;a href=&quot;\nhttp://p2pdl.com&quot; rel=&quot;nofollow&quot; target=&quot;_NEW&quot;&gt;\nhttp://p2pdl.com&lt;/a&gt;  _____________________________ &lt;a href=&quot; http://p2pdl.com&quot; rel=&quot;nofollow&quot; target=&quot;_NEW&quot;&gt; http://p2pdl.com&lt;/a&gt;\n\n\nMud 2012 WEBRip 480p x264 AAC - VYTO\n\n\nGenre: Drama\nPlot: Two teenage boys encounter a fugitive and form a pact to help him evade the bounty\nhunters on his trail and to reunite him with his true love.\nDirector: Jeff Nichols\nStars: Matthew McConaughey, Tye Sheridan, Jacob Lofland.\nRated: PG-13 for some violence, sexual references, language, thematic elements and smoking.\n\n\nIMDb: &lt;a href=&quot;\nhttp://www.imdb.com/title/tt1935179/&quot; rel=&quot;nofollow&quot; target=&quot;_NEW&quot;&gt;\nhttp://www.imdb.com/title/tt1935179/&lt;/a&gt;\n\n\nFormat                         : MPEG-4\nFile size                      : 413 MiB\nDuration                       : 2h 10mn\nOverall bit rate               : 442 Kbps\nSource                         : 720p.WEB-DL.x264.AC3 - BiTo\n\nVideo\nFormat                         : AVC\nBit rate                       : 399 Kbps\nWidth                          : 720 pixels\nHeight                         : 304 pixels\nDisplay aspect ratio           : 2.35:1\nFrame rate mode                : Constant\nFrame rate                     : 23.976 fps\nStream size                    : 373 MiB (90%)\nWriting library                : x264 core 130 r2273\n\nAudio\nFormat                         : AAC\nBit rate mode                  : Variable\nBit rate                       : 39.9 Kbps\nChannel(s)                     : 2 channels\nChannel positions              : Front: L R\nSampling rate                  : 48.0 KHz\nStream size                    : 37.3 MiB (9%)\nLanguage                       : English\n\nSubtitle                       : Yes(English)\n &lt;a href=&quot;\nhttp://ultraimg.com/images/nYLHw.png&quot; rel=&quot;nofollow&quot; target=&quot;_NEW&quot;&gt;\nhttp://ultraimg.com/images/nYLHw.png&lt;/a&gt; &lt;a href=&quot;\nhttp://ultraimg.com/images/YE14l.png&quot; rel=&quot;nofollow&quot; target=&quot;_NEW&quot;&gt;\nhttp://ultraimg.com/images/YE14l.png&lt;/a&gt; &lt;a href=&quot;\nhttp://ultraimg.com/images/0Vu9.png&quot; rel=&quot;nofollow&quot; target=&quot;_NEW&quot;&gt;\nhttp://ultraimg.com/images/0Vu9.png&lt;/a&gt; &lt;a href=&quot;\nhttp://ultraimg.com/images/JlSdt.png&quot; rel=&quot;nofollow&quot; target=&quot;_NEW&quot;&gt;\nhttp://ultraimg.com/images/JlSdt.png&lt;/a&gt; &lt;a href=&quot;\nhttp://ultraimg.com/images/XNf4d.png&quot; rel=&quot;nofollow&quot; target=&quot;_NEW&quot;&gt;\nhttp://ultraimg.com/images/XNf4d.png&lt;/a&gt; &lt;a href=&quot;\nhttp://ultraimg.com/images/aSfHk.png&quot; rel=&quot;nofollow&quot; target=&quot;_NEW&quot;&gt;\nhttp://ultraimg.com/images/aSfHk.png&lt;/a&gt;\n\n----------------------------------------------------------------------------------------------------\n\n\nEncoded using revolutionary 10bit encoding, which enables us to provide you more crispier \nand sharper images at small sizes, just make sure you follow our instructions without a fault.\nRecommend to you to use latest version of VLC player. Install K-Lite Codec Pack or shark007 codecs\nin case of any kind of problem in playback (For non-VLC Media Player users). Alternatively, install\nCore AVC codecs, the fastest decoder that there is coupled with Community Center Codec Pack and play\non Windows Media Player Classic. Check sample to be sure.\nEnjoy!\n\nEncoder Notes:Looking For Early Access To Anything You Can Provide DVDScr, R5, DVDR, BluRay, Direct\nAudio, Music Releases and Seedboxes. We require dedicated servers, so as to do more \nand fast releases of movies.\nIf You Got anything to offer please contact us at &quot;&lt;a class=&quot;__cf_email__&quot; href=&quot;/cdn-cgi/l/email-protection&quot; data-cfemail=&quot;86f6f4e1c6eef3f5eea8e5e9eb&quot;&gt;[email&amp;#160;protected]&lt;/a&gt;&lt;script cf-hash='f9e31' type=&quot;text/javascript&quot;&gt;\n/* &lt;![CDATA[ */!function(){try{var t=&quot;currentScript&quot;in document?document.currentScript:function(){for(var t=document.getElementsByTagName(&quot;script&quot;),e=t.length;e--;)if(t[e].getAttribute(&quot;cf-hash&quot;))return t[e]}();if(t&amp;&amp;t.previousSibling){var e,r,n,i,c=t.previousSibling,a=c.getAttribute(&quot;data-cfemail&quot;);if(a){for(e=&quot;&quot;,r=parseInt(a.substr(0,2),16),n=2;a.length-n;n+=2)i=parseInt(a.substr(n,2),16)^r,e+=String.fromCharCode(i);e=document.createTextNode(e),c.parentNode.replaceChild(e,c)}}}catch(u){}}();/* ]]&gt; */&lt;/script&gt;&quot;.\n\nFace book Fan Page:  \nSearch P2PDL on FB.","torrent":{"xt":"urn:btih:b2152a5f182cd409bbc1469592c55a8215f0957e","amp;dn":"Mud+2012+WEBRip+480p+x264+AAC+-+VYTO+%5BP2PDL%5D","amp;tr":["udp%3A%2F%2Ftracker.openbittorrent.com%3A80","udp%3A%2F%2Fopen.demonii.com%3A1337","udp%3A%2F%2Ftracker.coppersurfer.tk%3A6969","udp%3A%2F%2Fexodus.desync.com%3A6969"],"infoHash":"b2152a5f182cd409bbc1469592c55a8215f0957e","infoHashBuffer":{"type":"Buffer","data":[178,21,42,95,24,44,212,9,187,193,70,149,146,197,90,130,21,240,149,126]},"announce":[],"urlList":[]}}